<svg width="20" height="20" viewBox="0 0 20 20" fill="none" xmlns="http://www.w3.org/2000/svg">
<path d="M5 4.00001V15H3C2.46957 15 1.96086 15.2107 1.58579 15.5858C1.21071 15.9609 1 16.4696 1 17V6.00001C1 5.46957 1.21071 4.96087 1.58579 4.58579C1.96086 4.21072 2.46957 4.00001 3 4.00001H5ZM18.71 2.69001L17.31 1.29001C17.1231 1.10678 16.8718 1.00415 16.61 1.00415C16.3482 1.00415 16.0969 1.10678 15.91 1.29001L11 6.20001V9.00001H13.8L18.71 4.09001C18.8932 3.90308 18.9959 3.65176 18.9959 3.39001C18.9959 3.12825 18.8932 2.87694 18.71 2.69001V2.69001ZM18 7.00001H15.8L13.8 9.00001H11V7.00001H5V15H3C2.46957 15 1.96086 15.2107 1.58579 15.5858C1.21071 15.9609 1 16.4696 1 17C1 17.5304 1.21071 18.0391 1.58579 18.4142C1.96086 18.7893 2.46957 19 3 19H18C18.2652 19 18.5196 18.8947 18.7071 18.7071C18.8946 18.5196 19 18.2652 19 18V8.00001C19 7.73479 18.8946 7.48044 18.7071 7.2929C18.5196 7.10536 18.2652 7.00001 18 7.00001Z" stroke="#FF7915" stroke-width="2" stroke-linecap="round" stroke-linejoin="round"/>
</svg>
