<svg width="96" height="38" viewBox="0 0 96 38" fill="none" xmlns="http://www.w3.org/2000/svg">
<path d="M49.0197 17.5563H46.2797V8.78112L43.5879 9.57271V7.48492L48.7681 5.6825H49.0197V17.5563Z" fill="white"/>
<path d="M59.6444 17.5562H51.4086V15.7618L55.2012 11.7491C56.137 10.6786 56.6032 9.82733 56.6032 9.19696C56.6032 8.6859 56.4927 8.29736 56.2716 8.03135C56.0504 7.76534 55.7284 7.63153 55.307 7.63153C54.8856 7.63153 54.5523 7.81048 54.2943 8.16516C54.0348 8.52146 53.905 8.96481 53.905 9.49844H51.165C51.165 8.76973 51.3461 8.09745 51.7082 7.47998C52.0703 6.86251 52.5719 6.38047 53.216 6.03224C53.8585 5.684 54.5779 5.50989 55.3727 5.50989C56.6481 5.50989 57.6303 5.80653 58.3193 6.3982C59.0083 6.99149 59.3528 7.84272 59.3528 8.9503C59.3528 9.41783 59.2662 9.87408 59.0932 10.3158C58.9202 10.7592 58.651 11.2235 58.2872 11.7104C57.9219 12.1972 57.3355 12.8486 56.5247 13.6643L55.0009 15.4345H59.646V17.5545L59.6444 17.5562Z" fill="white"/>
<path d="M63.8494 10.469H65.1376C66.1583 10.469 66.6694 9.96598 66.6694 8.95997C66.6694 8.56821 66.5477 8.249 66.3041 8.00233C66.0606 7.75567 65.7177 7.63153 65.2754 7.63153C64.9133 7.63153 64.5977 7.73793 64.3317 7.94913C64.0641 8.16194 63.9295 8.42472 63.9295 8.74071H61.1976C61.1976 8.11518 61.3706 7.55898 61.7167 7.06887C62.0628 6.57877 62.5419 6.19829 63.1556 5.92261C63.7693 5.64854 64.4438 5.50989 65.1777 5.50989C66.4916 5.50989 67.5235 5.81137 68.2733 6.41594C69.0248 7.0189 69.3997 7.84917 69.3997 8.90354C69.3997 9.41461 69.2443 9.89665 68.9335 10.3513C68.6226 10.8059 68.1708 11.1735 67.5763 11.4556C68.2028 11.6846 68.6947 12.0312 69.052 12.4955C69.4094 12.9614 69.5872 13.5354 69.5872 14.2205C69.5872 15.2814 69.1818 16.1294 68.3711 16.7646C67.5603 17.4014 66.4964 17.719 65.1777 17.719C64.4054 17.719 63.6876 17.5707 63.0258 17.274C62.3641 16.9774 61.8625 16.5679 61.5229 16.0423C61.1832 15.5184 61.0117 14.9218 61.0117 14.2528H63.7597C63.7597 14.6171 63.9055 14.9331 64.1971 15.1991C64.4887 15.4652 64.8476 15.599 65.2754 15.599C65.7561 15.599 66.1391 15.4635 66.4259 15.1959C66.7127 14.9267 66.8553 14.5833 66.8553 14.1641C66.8553 13.566 66.7063 13.142 66.4099 12.8921C66.1118 12.6422 65.7016 12.5165 65.1777 12.5165H63.8494V10.469Z" fill="white"/>
<path d="M44.733 27.1778V32.0144H43.7363V20.1406H47.7565C48.9838 20.1406 49.9516 20.4566 50.6631 21.087C51.3729 21.7173 51.7286 22.5847 51.7286 23.6891C51.7286 24.7934 51.3873 25.664 50.7031 26.2702C50.0189 26.8763 49.0287 27.1794 47.7325 27.1794H44.733V27.1778ZM44.733 26.3298H47.7565C48.7243 26.3298 49.4613 26.0977 49.9693 25.635C50.4772 25.1723 50.7304 24.5274 50.7304 23.6987C50.7304 22.8701 50.4772 22.222 49.9725 21.7351C49.4677 21.2482 48.7499 20.9983 47.8206 20.987H44.7314V26.3298H44.733Z" fill="white"/>
<path d="M57.7833 24.0211C57.5782 23.984 57.3587 23.9647 57.1264 23.9647C56.5207 23.9647 56.0096 24.1339 55.5898 24.4741C55.1716 24.8143 54.8719 25.3076 54.6941 25.9541V32.0143H53.7295V23.1892H54.6781L54.6941 24.5918C55.2068 23.5487 56.032 23.0264 57.1664 23.0264C57.4372 23.0264 57.6503 23.0618 57.8073 23.1328L57.7833 24.0211Z" fill="white"/>
<path d="M58.6182 27.4712C58.6182 26.6232 58.7816 25.859 59.1085 25.1787C59.4353 24.4983 59.8968 23.9695 60.4945 23.5923C61.0921 23.215 61.7683 23.0248 62.5246 23.0248C63.691 23.0248 64.638 23.4359 65.3622 24.2597C66.0865 25.0835 66.4486 26.175 66.4486 27.5341V27.7372C66.4486 28.5917 66.2852 29.3591 65.9583 30.041C65.6314 30.723 65.17 31.2502 64.5755 31.6194C63.9811 31.9902 63.3033 32.174 62.5406 32.174C61.3789 32.174 60.4336 31.7628 59.7077 30.939C58.9803 30.1152 58.6182 29.0237 58.6182 27.6647V27.4696V27.4712ZM59.5908 27.7404C59.5908 28.7964 59.8615 29.6605 60.4047 30.3377C60.9479 31.0148 61.6593 31.3533 62.5406 31.3533C63.4219 31.3533 64.1253 31.0148 64.6684 30.3377C65.2116 29.6605 65.4824 28.7674 65.4824 27.6582V27.4712C65.4824 26.7973 65.3574 26.1798 65.1091 25.6204C64.8607 25.061 64.5114 24.6273 64.0628 24.3194C63.6141 24.0114 63.1014 23.8583 62.523 23.8583C61.6577 23.8583 60.9527 24.2001 60.4079 24.882C59.8615 25.564 59.5892 26.4571 59.5892 27.5615V27.7404H59.5908Z" fill="white"/>
<path d="M69.4964 23.1893V33.0656C69.4964 33.8813 69.3026 34.5036 68.9132 34.9325C68.5238 35.3613 67.9518 35.5773 67.1955 35.5773C66.9039 35.5773 66.6203 35.5258 66.3447 35.4242L66.3608 34.6229C66.5979 34.6939 66.8414 34.7293 67.0898 34.7293C68.0512 34.7293 68.5319 34.1715 68.5319 33.0559V23.1893H69.4964ZM69.0174 19.9843C69.2289 19.9843 69.3923 20.0487 69.5125 20.1745C69.631 20.3019 69.6903 20.4566 69.6903 20.6404C69.6903 20.8242 69.631 20.9774 69.5125 21.1015C69.3939 21.2256 69.2289 21.2885 69.0174 21.2885C68.8059 21.2885 68.652 21.2273 68.5351 21.1015C68.4181 20.9774 68.3604 20.8226 68.3604 20.6404C68.3604 20.4582 68.4181 20.3019 68.5351 20.1745C68.6504 20.0471 68.8123 19.9843 69.0174 19.9843Z" fill="white"/>
<path d="M75.6313 32.1771C74.8862 32.1771 74.2116 31.9917 73.6092 31.6226C73.0067 31.2534 72.5372 30.7375 72.2023 30.0765C71.8675 29.4155 71.6992 28.6755 71.6992 27.8549V27.5034C71.6992 26.6554 71.8627 25.8912 72.1895 25.2125C72.5164 24.5322 72.9714 23.9985 73.5547 23.61C74.1379 23.2214 74.7708 23.0264 75.4518 23.0264C76.5157 23.0264 77.3601 23.3923 77.985 24.1227C78.6083 24.8546 78.9208 25.8525 78.9208 27.1197V27.6662H72.6638V27.8533C72.6638 28.8528 72.949 29.6863 73.5194 30.3522C74.0898 31.018 74.8077 31.3517 75.6713 31.3517C76.1905 31.3517 76.6487 31.2566 77.0445 31.0664C77.4418 30.8761 77.8024 30.5714 78.1276 30.1522L78.7349 30.6166C78.0219 31.6548 76.9868 32.1739 75.6313 32.1739V32.1771ZM75.4534 23.8583C74.7244 23.8583 74.1091 24.1275 73.6092 24.666C73.1092 25.2044 72.8048 25.9283 72.6974 26.836H77.9578V26.7296C77.9306 25.8816 77.6902 25.1915 77.2368 24.6579C76.7833 24.1243 76.1889 23.8583 75.4534 23.8583Z" fill="white"/>
<path d="M82.3179 20.9305V23.1892H84.1333V23.9889H82.3179V29.875C82.3179 30.3651 82.406 30.7294 82.5823 30.9696C82.7569 31.2082 83.0518 31.3292 83.4619 31.3292C83.6238 31.3292 83.8865 31.3018 84.2487 31.2469L84.2887 32.0401C84.034 32.132 83.6895 32.1772 83.2504 32.1772C82.5855 32.1772 82.1016 31.9821 81.8004 31.5936C81.4975 31.205 81.3469 30.6327 81.3469 29.8766V23.9889H79.7334V23.1892H81.3469V20.9305H82.3195H82.3179Z" fill="white"/>
<path d="M89.5414 32.1771C88.7963 32.1771 88.1218 31.9917 87.5193 31.6226C86.9169 31.2534 86.4474 30.7375 86.1125 30.0765C85.7776 29.4155 85.6094 28.6755 85.6094 27.8549V27.5034C85.6094 26.6554 85.7728 25.8912 86.0997 25.2125C86.4265 24.5322 86.8816 23.9985 87.4648 23.61C88.0481 23.2214 88.681 23.0264 89.362 23.0264C90.4259 23.0264 91.2703 23.3923 91.8952 24.1227C92.5201 24.8546 92.8309 25.8525 92.8309 27.1197V27.6662H86.574V27.8533C86.574 28.8528 86.8592 29.6863 87.4296 30.3522C88 31.018 88.7162 31.3517 89.5815 31.3517C90.1006 31.3517 90.5573 31.2566 90.9546 31.0664C91.352 30.8761 91.7125 30.5714 92.0362 30.1522L92.6435 30.6166C91.9304 31.6548 90.8954 32.1739 89.5398 32.1739L89.5414 32.1771ZM89.3636 23.8583C88.6345 23.8583 88.0192 24.1275 87.5193 24.666C87.0194 25.2044 86.715 25.9283 86.6076 26.836H91.8679V26.7296C91.8407 25.8816 91.6004 25.1915 91.1469 24.6579C90.6935 24.1243 90.099 23.8583 89.3636 23.8583Z" fill="white"/>
<path d="M94.6641 20.6404C94.6641 20.4566 94.7233 20.3019 94.8419 20.1745C94.9605 20.0471 95.1223 19.9843 95.329 19.9843C95.5357 19.9843 95.6975 20.0487 95.8193 20.1745C95.9411 20.3019 96.002 20.4566 96.002 20.6404C96.002 20.8242 95.9411 20.9774 95.8193 21.1015C95.6975 21.2256 95.5341 21.2885 95.329 21.2885C95.1239 21.2885 94.9621 21.2273 94.8419 21.1015C94.7233 20.9774 94.6641 20.8226 94.6641 20.6404ZM95.8065 32.0128H94.8339V23.1877H95.8065V32.0128Z" fill="white"/>
<path d="M37.279 17.187H33.9078V6.47889C33.9078 5.18592 33.3518 3.95904 32.3824 3.11103C31.413 2.26302 30.1264 1.88093 28.8558 2.05988L18.8158 3.6898V0.241333H15.4413V4.23634L7.13823 5.58413C4.97193 5.90012 3.33919 7.79605 3.33919 10.0015V17.1935H0V20.5888H3.33758V27.734C3.33758 29.9395 4.96872 31.8338 7.13663 32.1514L15.3917 33.4911V37.7602H18.7661V34.0393L28.8221 35.6724L28.8558 35.6772C29.0625 35.7063 29.2691 35.7208 29.4742 35.7208C30.5366 35.7208 31.57 35.3371 32.3824 34.6261C33.3518 33.7781 33.9078 32.5496 33.9078 31.2582V20.5839H37.279V17.1887V17.187ZM29.338 5.41807C29.7466 5.36487 30.0334 5.55349 30.168 5.67118C30.3042 5.79049 30.5334 6.05327 30.5334 6.47728V17.187H29.5095C23.8454 17.187 19.1971 12.7326 18.8382 7.12377L29.3364 5.41968L29.338 5.41807ZM7.65898 28.7964L7.62533 28.7916C7.10458 28.7174 6.71202 28.2628 6.71202 27.734V20.5888H14.2572C14.8821 20.5888 15.3917 21.1014 15.3917 21.7302V30.0523L7.65898 28.7964ZM30.5334 31.2566C30.5334 31.6806 30.3042 31.9434 30.168 32.0627C30.0334 32.1804 29.7466 32.3706 29.338 32.3158L18.7661 30.5988V21.7286C18.7661 19.2281 16.744 17.1919 14.2572 17.1919H6.71202V9.99991C6.71202 9.47111 7.10458 9.01648 7.62533 8.94232L15.4974 7.66385C16.1239 14.8913 22.1678 20.5807 29.5095 20.5807H30.5334V31.255V31.2566Z" fill="white"/>
</svg>
