<svg width="197" height="32" viewBox="0 0 197 32" fill="none" xmlns="http://www.w3.org/2000/svg">
<g clip-path="url(#clip0_874_3339)">
<path d="M29.612 30.8778V30.3457C34.9107 30.3457 38.0593 27.219 44.6044 17.8533L35.4938 4.65025C33.9195 2.3398 33.0266 1.43238 30.359 1.43238V0.903977H49.9213V1.43238C47.7056 1.43238 47.3157 2.30336 47.3157 3.40391C47.3157 4.26031 47.7748 5.08755 48.2814 5.90022L52.6545 12.3141C55.5698 8.14871 57.5632 5.17136 57.5632 3.33103C57.5632 1.93164 56.47 1.43238 54.6151 1.43238V0.903977H65.8211V1.43238C61.7906 1.43238 59.7024 3.61893 53.0881 12.9518L62.5923 26.8801C64.2358 29.2525 65.894 30.3457 67.9384 30.3457V30.8778H49.2143V30.3457C50.9016 30.3457 51.5065 29.7262 51.5065 28.6912C51.5065 28.0061 50.989 27.0696 50.2784 26.0674L45.038 18.4837C41.299 23.9137 40.2604 25.6483 40.2604 27.1935C40.2604 29.0338 41.7181 30.3457 44.2691 30.3457V30.8778H29.612ZM171.008 13.2907C171.285 4.46803 173.02 2.10657 175.104 2.10657C177.189 2.10657 179.266 4.03072 179.186 13.2907H171.008ZM159.58 15.8927C159.58 28.7386 172.655 35.2071 183.971 29.5804L183.606 29.216C176.194 31.7232 170.954 26.1949 170.954 15.8854C170.954 15.4117 170.954 14.9525 170.954 14.5079H189.058C189.058 5.51393 183.956 0.000203656 175.079 0.000203656C166.712 0.00749212 159.58 7.2012 159.58 15.8927ZM105.707 3.86673V3.34561L119.657 0.00748812V4.9272C122.755 2.60583 126.049 0.0293526 129.573 0.0293526C133.32 0.0293526 135.798 1.80774 136.72 5.16407C139.908 2.78803 143.308 0.0293526 146.956 0.0293526C151.788 0.0293526 154.514 2.99211 154.507 8.48033V27.2809C154.507 29.8683 155.046 30.3494 156.847 30.3494V30.8778H141.65V30.3494C143.268 30.3494 143.866 29.5695 143.866 27.6417V6.92424C143.866 3.20713 140.112 3.69181 136.942 6.0715C137.078 6.86717 137.143 7.67318 137.139 8.48033V27.2809C137.139 29.8683 137.678 30.3494 139.478 30.3494V30.8778H124.267V30.3494C125.889 30.3494 126.487 29.5695 126.487 27.6417V6.92424C126.487 3.25086 122.824 3.67723 119.661 5.98767V28.1847C119.661 29.872 120.681 30.353 122.001 30.353V30.8814H105.707V30.353C107.923 30.353 108.987 28.735 108.987 26.2678V7.37977C109.002 5.04382 106.746 3.87766 105.707 3.87766V3.86673ZM80.2741 23.254C80.2741 19.4568 81.9395 15.7907 87.4277 14.537L87.4678 23.6221C87.3002 25.9654 85.5181 27.2663 83.8236 27.2445C81.8302 27.2299 80.2741 25.9982 80.2741 23.265V23.254ZM69.2467 24.8138C69.2467 30.3858 74.6401 31.767 77.1583 31.767C81.6881 31.767 86.145 29.216 87.5954 25.6993C88.1602 29.8501 90.6055 31.767 95.2482 31.767C99.3225 31.767 101.961 30.087 103.63 26.9712L103.211 26.6723C100.995 28.5892 98.109 27.1497 98.109 23.254V8.99781C98.109 1.79317 88.9219 -1.93488 80.5693 1.00602L80.6567 1.50163C85.3505 1.53807 87.3803 4.69762 87.3803 10.2478V13.892C73.8639 15.5538 69.2467 19.1761 69.2467 24.8247V24.8138ZM11.8573 13.2907C12.1379 4.46803 13.8689 2.10657 15.957 2.10657C18.0452 2.10657 20.1151 4.03072 20.0386 13.2907H11.8573ZM0.432617 15.8927C0.432617 29.8756 16.0482 36.5154 27.8737 27.9624L27.5093 27.598C18.3987 32.9914 11.8063 27.6198 11.8063 15.8891C11.8063 15.4153 11.8063 14.9561 11.8063 14.5115H29.9363C29.9363 5.51757 24.8344 0.00385145 15.957 0.00385145C7.56438 0.00749568 0.432617 7.2012 0.432617 15.8927ZM76.4805 11.7856C77.0739 11.796 77.6633 11.6868 78.2136 11.4645C78.7638 11.2421 79.2637 10.9113 79.6834 10.4916C80.1031 10.0719 80.4339 9.57206 80.6562 9.02178C80.8786 8.4715 80.9878 7.88207 80.9774 7.28867C80.9774 6.39925 80.7137 5.5298 80.2196 4.79028C79.7254 4.05075 79.0231 3.47437 78.2014 3.134C77.3797 2.79363 76.4755 2.70457 75.6031 2.87809C74.7308 3.0516 73.9295 3.4799 73.3006 4.10882C72.6717 4.73773 72.2434 5.53902 72.0699 6.41135C71.8964 7.28368 71.9854 8.18787 72.3258 9.00959C72.6661 9.83131 73.2425 10.5336 73.9821 11.0278C74.7216 11.5219 75.591 11.7856 76.4805 11.7856ZM192.05 31.9856C192.642 31.9969 193.231 31.889 193.78 31.6682C194.33 31.4474 194.83 31.1182 195.25 30.7004C195.67 30.2825 196.001 29.7844 196.225 29.2358C196.448 28.6872 196.559 28.0992 196.551 27.5069C196.551 26.6173 196.288 25.7475 195.794 25.0075C195.301 24.2675 194.599 23.6905 193.777 23.3496C192.955 23.0087 192.051 22.9191 191.179 23.0922C190.306 23.2653 189.504 23.6933 188.875 24.3221C188.246 24.9508 187.817 25.7521 187.643 26.6246C187.469 27.497 187.558 28.4014 187.899 29.2233C188.239 30.0452 188.815 30.7478 189.555 31.2421C190.294 31.7364 191.164 32.0002 192.054 32.0002L192.05 31.9856Z" fill="#E11D22"/>
</g>
<defs>
<clipPath id="clip0_874_3339">
<rect width="196.118" height="32" fill="white" transform="translate(0.432617)"/>
</clipPath>
</defs>
</svg>
