<svg width="185" height="48" viewBox="0 0 185 48" fill="none" xmlns="http://www.w3.org/2000/svg">
<path opacity="0.995" fill-rule="evenodd" clip-rule="evenodd" d="M29.0115 2.34082C31.3075 2.34082 33.6034 2.34082 35.8994 2.34082C35.8994 4.70853 35.8994 7.07625 35.8994 9.44396C37.998 9.44396 40.0967 9.44396 42.1954 9.44396C42.1954 11.3991 42.1954 13.3543 42.1954 15.3094C40.0967 15.3094 37.998 15.3094 35.8994 15.3094C35.8904 19.0942 35.8994 22.879 35.9263 26.6637C35.9442 27.0404 35.9622 27.4171 35.9801 27.7937C36.0786 28.6993 36.5719 29.2464 37.4599 29.435C38.9667 29.4516 40.4734 29.4426 41.9801 29.4081C42.0489 31.122 42.1386 32.835 42.2492 34.5471C42.2476 34.6775 42.2296 34.8031 42.1954 34.9238C40.4863 35.3327 38.7553 35.5928 37.0025 35.704C35.4966 35.717 34.0347 35.4749 32.6169 34.9776C31.1932 34.4148 30.2515 33.4014 29.7918 31.9372C29.3204 30.4315 29.0693 28.8889 29.0384 27.3094C29.0115 23.3094 29.0025 19.3095 29.0115 15.3094C28.007 15.3094 27.0025 15.3094 25.998 15.3094C25.998 13.3543 25.998 11.3991 25.998 9.44396C27.0025 9.44396 28.007 9.44396 29.0115 9.44396C29.0115 7.07625 29.0115 4.70853 29.0115 2.34082Z" fill="black"/>
<path opacity="0.995" fill-rule="evenodd" clip-rule="evenodd" d="M92.7791 2.34082C95.0752 2.34082 97.3708 2.34082 99.667 2.34082C99.667 4.70853 99.667 7.07625 99.667 9.44396C101.766 9.44396 103.864 9.44396 105.963 9.44396C105.963 11.3991 105.963 13.3543 105.963 15.3094C103.864 15.3094 101.766 15.3094 99.667 15.3094C99.6444 19.4535 99.6713 23.597 99.7477 27.7399C99.8214 28.6745 100.315 29.2395 101.228 29.435C102.734 29.4516 104.241 29.4426 105.748 29.4081C105.819 31.104 105.908 32.799 106.017 34.4933C106.015 34.6415 105.997 34.7851 105.963 34.9238C104.254 35.3327 102.523 35.5928 100.77 35.7041C99.3651 35.7084 97.9929 35.5021 96.6535 35.0852C95.4874 34.6899 94.5995 33.9635 93.9898 32.9058C93.3705 31.5946 93.0115 30.2134 92.9136 28.7623C92.8641 28.2432 92.828 27.723 92.806 27.2018C92.7791 23.2377 92.7699 19.2736 92.7791 15.3094C91.7744 15.3094 90.7703 15.3094 89.7656 15.3094C89.7656 13.3543 89.7656 11.3991 89.7656 9.44396C90.7703 9.44396 91.7744 9.44396 92.7791 9.44396C92.7791 7.07625 92.7791 4.70853 92.7791 2.34082Z" fill="black"/>
<path opacity="0.992" fill-rule="evenodd" clip-rule="evenodd" d="M12.1695 8.85205C15.6186 8.98862 19.0266 9.43704 22.3937 10.1973C22.3271 12.0962 22.2912 13.9976 22.2861 15.9014C20.0868 15.6022 17.8805 15.36 15.6672 15.1749C14.4126 15.095 13.157 15.0771 11.9004 15.1211C11.2598 15.1416 10.6499 15.285 10.0708 15.5516C9.45741 16.0286 9.25115 16.6474 9.45197 17.4081C9.60302 17.8462 9.89899 18.1421 10.3399 18.296C11.0798 18.5437 11.8332 18.7411 12.6 18.8879C13.9812 19.157 15.3624 19.4261 16.7435 19.6951C18.346 20.0194 19.7989 20.6651 21.1022 21.6323C22.0422 22.4985 22.6252 23.5658 22.8511 24.8341C23.9414 31.4918 21.1342 35.0882 14.4296 35.6234C11.8486 35.7401 9.2836 35.5787 6.73448 35.139C5.45836 34.925 4.18482 34.7009 2.91386 34.4664C3.00094 32.5301 3.0727 30.5929 3.1291 28.6547C5.32841 28.9539 7.53472 29.1961 9.74794 29.3812C10.9666 29.4615 12.1864 29.4795 13.4071 29.435C14.0363 29.3988 14.6461 29.2733 15.2367 29.0583C16.0985 28.6168 16.3944 27.9262 16.1246 26.9866C15.9124 26.5613 15.5806 26.2653 15.1291 26.0987C14.4102 25.8427 13.6747 25.6454 12.9228 25.5068C11.2989 25.2301 9.68455 24.9072 8.07978 24.5381C6.76989 24.1791 5.56812 23.6051 4.47439 22.8162C3.5678 21.999 3.00278 20.9856 2.77933 19.7758C2.50413 18.2928 2.46826 16.804 2.6717 15.3094C3.07376 13.0968 4.24865 11.4376 6.19637 10.3319C8.07364 9.35584 10.0647 8.86254 12.1695 8.85205Z" fill="black"/>
<path opacity="0.993" fill-rule="evenodd" clip-rule="evenodd" d="M55.0566 8.85214C56.4029 8.83206 57.7482 8.85897 59.0925 8.93285C63.7057 9.36711 66.0826 11.9052 66.2225 16.5472C66.2236 20.6204 66.2596 24.6921 66.3301 28.7624C66.4119 29.7499 66.9409 30.3059 67.9176 30.4306C67.8659 32.1708 67.8029 33.9107 67.7292 35.6503C66.2768 35.7042 64.8325 35.5876 63.3974 35.3006C62.3125 34.9957 61.2993 34.5383 60.357 33.9284C57.4356 35.3555 54.3596 35.9025 51.1283 35.5696C48.1511 35.2103 46.2229 33.605 45.3436 30.7535C44.9619 29.2151 44.8363 27.6546 44.9669 26.0719C45.0958 23.2545 46.468 21.3442 49.0835 20.3409C50.3747 19.889 51.7021 19.602 53.0655 19.4799C55.1631 19.3096 57.2618 19.1571 59.3615 19.0225C59.3707 18.4303 59.3615 17.8384 59.3346 17.2468C59.3572 15.6912 58.5952 14.8571 57.0476 14.7445C56.8055 14.7355 56.5633 14.7266 56.3212 14.7176C53.1198 14.8579 49.918 14.9835 46.7158 15.0943C46.6186 13.4975 46.5648 11.901 46.5543 10.305C49.3464 9.52973 52.1804 9.04543 55.0566 8.85214ZM59.0925 23.8118C59.1823 23.8118 59.2716 23.8118 59.3615 23.8118C59.3615 25.6235 59.3615 27.4351 59.3615 29.2468C57.78 29.7101 56.1656 29.9792 54.5185 30.0539C52.9668 30.1175 52.0968 29.3821 51.9086 27.8477C51.7764 26.9183 51.9557 26.0573 52.4467 25.2647C52.9523 24.689 53.5891 24.3572 54.357 24.2692C55.9445 24.1273 57.5233 23.9749 59.0925 23.8118Z" fill="black"/>
<path opacity="0.995" fill-rule="evenodd" clip-rule="evenodd" d="M87.4513 8.85205C87.5589 8.85205 87.6666 8.85205 87.7742 8.85205C87.7742 11.166 87.7742 13.4799 87.7742 15.7938C85.0201 16.3141 82.3209 17.0315 79.6755 17.9462C79.6486 23.6502 79.6395 29.3542 79.6486 35.0583C77.3525 35.0583 75.0569 35.0583 72.7607 35.0583C72.7607 26.5202 72.7607 17.9821 72.7607 9.44398C75.0386 9.44398 77.317 9.44398 79.5948 9.44398C79.5771 10.3236 79.5948 11.2025 79.6486 12.0808C82.0874 10.6009 84.6881 9.5247 87.4513 8.85205Z" fill="black"/>
<path opacity="0.985" fill-rule="evenodd" clip-rule="evenodd" d="M148.958 8.90565C153.34 8.79469 156.129 10.8395 157.326 15.0402C157.979 17.6908 158.248 20.3814 158.133 23.1119C158.115 25.1024 157.846 27.0576 157.326 28.9774C156.199 32.8116 153.643 34.9551 149.658 35.4079C146.729 35.7119 143.823 35.5594 140.94 34.9505C140.94 38.8249 140.94 42.6994 140.94 46.5738C139.918 46.5738 138.895 46.5738 137.873 46.5738C137.873 34.1971 137.873 21.8204 137.873 9.44377C138.895 9.44377 139.918 9.44377 140.94 9.44377C140.923 10.0726 140.94 10.7004 140.994 11.3272C143.443 9.82325 146.098 9.01607 148.958 8.90565ZM147.828 11.7577C150.787 11.448 152.841 12.6498 153.99 15.363C154.497 16.8639 154.784 18.4065 154.851 19.9909C154.995 22.0614 154.923 24.1241 154.635 26.1792C154.434 27.718 153.913 29.135 153.075 30.4303C152.244 31.4339 151.195 32.1065 149.927 32.4483C148.51 32.7788 147.075 32.8864 145.622 32.7711C144.051 32.6667 142.49 32.4783 140.94 32.2061C140.923 26.1432 140.94 20.0804 140.994 14.0178C143.13 12.8096 145.408 12.0562 147.828 11.7577Z" fill="black"/>
<path opacity="0.983" fill-rule="evenodd" clip-rule="evenodd" d="M171.774 8.95996C173.104 8.97729 174.431 9.04009 175.756 9.1483C177.628 9.32841 179.493 9.55264 181.352 9.82095C181.333 10.7546 181.297 11.6873 181.245 12.6192C177.949 12.0595 174.631 11.7994 171.29 11.8389C169.965 11.8799 168.763 12.2745 167.684 13.0227C166.782 13.8411 166.352 14.8635 166.393 16.09C166.334 17.0991 166.657 17.9601 167.361 18.673C167.987 19.0933 168.669 19.3982 169.406 19.5878C171.288 20.0748 173.189 20.4694 175.11 20.7716C176.704 21.0696 178.228 21.5718 179.684 22.2783C180.925 22.9728 181.687 24.0222 181.971 25.4263C183.152 31.4532 180.704 34.7985 174.626 35.4622C172.469 35.6375 170.316 35.5837 168.169 35.3008C166.626 35.0869 165.083 34.8806 163.541 34.6819C163.626 33.7509 163.698 32.8182 163.756 31.8837C166.625 32.36 169.513 32.647 172.42 32.7447C174.126 32.846 175.74 32.5142 177.263 31.7492C178.319 31.0642 178.902 30.0866 179.012 28.8165C179.139 27.7782 179.013 26.7737 178.635 25.803C178.242 25.063 177.642 24.5698 176.832 24.3232C175.638 23.9171 174.418 23.6121 173.173 23.4084C171.949 23.2164 170.729 23.0011 169.514 22.7627C168.104 22.4782 166.759 22.0118 165.478 21.3635C164.677 20.8843 164.094 20.2117 163.729 19.3456C162.071 13.4299 164.269 10.0128 170.321 9.09449C170.814 9.05257 171.298 9.00775 171.774 8.95996Z" fill="black"/>
<path opacity="0.985" fill-rule="evenodd" clip-rule="evenodd" d="M110.806 9.44385C111.828 9.44385 112.851 9.44385 113.873 9.44385C113.864 14.6098 113.873 19.7757 113.9 24.9416C113.934 26.488 114.131 28.0126 114.492 29.5156C114.946 31.297 116.085 32.3284 117.909 32.6098C121.232 32.9875 124.326 32.3149 127.191 30.5918C127.218 23.5425 127.227 16.4932 127.218 9.44385C128.241 9.44385 129.263 9.44385 130.286 9.44385C130.286 17.982 130.286 26.5201 130.286 35.0582C129.263 35.0582 128.241 35.0582 127.218 35.0582C127.236 34.4473 127.218 33.8374 127.165 33.2286C123.535 35.5017 119.643 36.1205 115.487 35.0851C113.582 34.5253 112.336 33.2966 111.747 31.399C111.26 29.7113 110.973 27.9893 110.886 26.2331C110.808 20.6373 110.781 15.0409 110.806 9.44385Z" fill="black"/>
<path opacity="0.957" fill-rule="evenodd" clip-rule="evenodd" d="M172.581 38.0181C172.958 38.0181 173.334 38.0181 173.711 38.0181C173.693 38.9694 173.711 39.9201 173.765 40.8701C174.47 40.3885 175.242 40.2539 176.079 40.4665C176.766 40.7182 177.152 41.2115 177.236 41.9463C177.355 43.0433 177.337 44.1374 177.182 45.2288C176.918 46.2277 176.263 46.712 175.218 46.6817C174.664 46.6602 174.171 46.4809 173.738 46.1436C173.711 46.286 173.702 46.4295 173.711 46.5741C173.334 46.5741 172.958 46.5741 172.581 46.5741C172.581 43.7221 172.581 40.8701 172.581 38.0181ZM174.626 41.0315C175.484 40.863 175.977 41.2038 176.106 42.0539C176.142 43.0046 176.142 43.9553 176.106 44.906C176.002 45.7977 175.509 46.1474 174.626 45.9553C174.29 45.9033 173.994 45.7687 173.738 45.5517C173.702 44.1885 173.702 42.8252 173.738 41.462C174.016 41.2714 174.312 41.1278 174.626 41.0315Z" fill="black"/>
<path opacity="0.951" fill-rule="evenodd" clip-rule="evenodd" d="M163.218 40.332C163.911 40.2613 164.44 40.5123 164.806 41.0853C165.628 40.4258 166.552 40.2196 167.577 40.4665C167.996 40.6165 168.238 40.9125 168.303 41.3544C168.33 43.0942 168.339 44.8341 168.33 46.5741C167.99 46.5741 167.649 46.5741 167.308 46.5741C167.332 44.8504 167.305 43.1284 167.227 41.4082C167.085 41.0634 166.825 40.902 166.447 40.9239C165.88 40.9788 165.369 41.1761 164.913 41.5158C164.886 43.2018 164.877 44.8879 164.886 46.5741C164.527 46.5741 164.169 46.5741 163.81 46.5741C163.819 44.87 163.81 43.166 163.783 41.462C163.663 41.0695 163.394 40.8902 162.976 40.9239C162.418 40.9842 161.916 41.1815 161.469 41.5158C161.442 43.2018 161.433 44.8879 161.442 46.5741C161.084 46.5741 160.725 46.5741 160.366 46.5741C160.366 44.5293 160.366 42.4844 160.366 40.4396C160.725 40.4396 161.084 40.4396 161.442 40.4396C161.433 40.6199 161.442 40.7992 161.469 40.9777C162.002 40.6062 162.584 40.391 163.218 40.332Z" fill="black"/>
<path opacity="0.95" fill-rule="evenodd" clip-rule="evenodd" d="M150.088 40.3857C150.591 40.3767 151.093 40.3857 151.595 40.4126C152.294 40.4847 152.752 40.8525 152.967 41.5157C153.036 41.889 153.063 42.2657 153.048 42.6458C152.689 42.6458 152.33 42.6458 151.971 42.6458C152.137 41.2575 151.545 40.7463 150.196 41.1121C149.93 41.2573 149.778 41.4815 149.738 41.7848C149.631 42.9327 149.631 44.0808 149.738 45.2287C149.801 45.5971 150.007 45.8393 150.357 45.9552C150.878 46.1152 151.354 46.0345 151.783 45.713C151.867 45.5808 151.921 45.4373 151.944 45.2825C151.971 44.9422 151.981 44.6014 151.971 44.2601C152.33 44.2601 152.689 44.2601 153.048 44.2601C153.235 45.8932 152.508 46.7004 150.868 46.6816C150.285 46.6862 149.739 46.5517 149.227 46.278C148.778 45.8901 148.553 45.3968 148.554 44.7982C148.506 43.81 148.525 42.8234 148.608 41.8386C148.777 41.0152 149.27 40.5309 150.088 40.3857Z" fill="black"/>
<path opacity="0.96" fill-rule="evenodd" clip-rule="evenodd" d="M155.9 40.3857C158.266 40.0977 159.271 41.1381 158.913 43.5068C159.213 46.0677 158.101 47.0811 155.577 46.5471C154.771 46.2732 154.349 45.7082 154.312 44.8521C154.276 43.9552 154.276 43.0583 154.312 42.1615C154.382 41.1505 154.911 40.5585 155.9 40.3857ZM156.384 40.9776C157.294 40.8929 157.752 41.3054 157.756 42.2153C157.792 43.0763 157.792 43.9373 157.756 44.7982C157.785 45.6036 157.399 46.0162 156.599 46.0359C155.747 45.9996 155.362 45.5512 155.442 44.6906C155.397 43.7206 155.415 42.7519 155.496 41.7848C155.602 41.2983 155.897 41.0292 156.384 40.9776Z" fill="black"/>
<path opacity="0.931" fill-rule="evenodd" clip-rule="evenodd" d="M181.568 40.3857C181.747 40.3857 181.927 40.3857 182.106 40.3857C182.115 40.6912 182.106 40.9961 182.079 41.3005C181.263 41.0822 180.564 41.2795 179.98 41.8925C179.953 43.4529 179.944 45.0134 179.953 46.5741C179.559 46.5741 179.164 46.5741 178.77 46.5741C178.77 44.5292 178.77 42.4844 178.77 40.4396C179.164 40.4396 179.559 40.4396 179.953 40.4396C179.944 40.6913 179.953 40.9424 179.98 41.1929C180.423 40.7431 180.952 40.474 181.568 40.3857Z" fill="black"/>
<path opacity="0.884" fill-rule="evenodd" clip-rule="evenodd" d="M146.053 45.3364C146.465 45.3364 146.878 45.3364 147.29 45.3364C147.29 45.749 147.29 46.1615 147.29 46.5741C146.878 46.5741 146.465 46.5741 146.053 46.5741C146.053 46.1615 146.053 45.749 146.053 45.3364Z" fill="black"/>
<path opacity="0.914" fill-rule="evenodd" clip-rule="evenodd" d="M169.944 45.3364C170.339 45.3364 170.734 45.3364 171.128 45.3364C171.128 45.749 171.128 46.1615 171.128 46.5741C170.734 46.5741 170.339 46.5741 169.944 46.5741C169.944 46.1615 169.944 45.749 169.944 45.3364Z" fill="black"/>
</svg>
