<svg width="137" height="48" viewBox="0 0 137 48" fill="none" xmlns="http://www.w3.org/2000/svg">
<path d="M128.58 5.60788C128.58 5.99988 128.508 6.36788 128.356 6.71188C128.204 7.05588 128.004 7.35188 127.74 7.60788C127.484 7.86388 127.18 8.06388 126.828 8.21588C126.484 8.36788 126.108 8.43988 125.716 8.43988C125.324 8.43988 124.948 8.36788 124.604 8.21588C124.26 8.06388 123.956 7.86388 123.7 7.60788C123.444 7.35188 123.244 7.05588 123.092 6.71188C122.94 6.36788 122.868 5.99988 122.868 5.60788C122.868 5.22388 122.94 4.85588 123.092 4.51188C123.244 4.16788 123.444 3.86388 123.7 3.60788C123.956 3.35188 124.252 3.15188 124.604 2.99988C124.948 2.84788 125.324 2.77588 125.716 2.77588C126.108 2.77588 126.476 2.84788 126.828 2.99988C127.172 3.15188 127.476 3.35188 127.74 3.60788C127.996 3.86388 128.204 4.15988 128.356 4.51188C128.5 4.86388 128.58 5.22388 128.58 5.60788Z" fill="white"/>
<path d="M88.7488 41.9041C88.7488 42.0481 88.7248 42.1841 88.6688 42.3121C88.6128 42.4401 88.5408 42.5521 88.4528 42.6401C88.3568 42.7361 88.2528 42.8081 88.1248 42.8641C87.9968 42.9201 87.8608 42.9441 87.7168 42.9441C87.5728 42.9441 87.4448 42.9201 87.3168 42.8641C87.1888 42.8081 87.0768 42.7361 86.9808 42.6401C86.8848 42.5441 86.8128 42.4401 86.7568 42.3121C86.7008 42.1841 86.6768 42.0481 86.6768 41.9041C86.6768 41.7601 86.7008 41.6321 86.7568 41.5041C86.8128 41.3761 86.8848 41.2721 86.9808 41.1761C87.0768 41.0801 87.1888 41.0081 87.3168 40.9521C87.4448 40.8961 87.5808 40.8721 87.7168 40.8721C87.8608 40.8721 87.9968 40.8961 88.1248 40.9521C88.2528 41.0081 88.3568 41.0801 88.4528 41.1761C88.5488 41.2721 88.6208 41.3761 88.6688 41.5041C88.7248 41.6321 88.7488 41.7601 88.7488 41.9041Z" fill="#56B043"/>
<path d="M95.6443 37.3279L94.4363 38.5439C94.3723 38.3759 94.2923 38.2239 94.1883 38.0879C94.0843 37.9519 93.9643 37.8399 93.8363 37.7439C93.7083 37.6479 93.5643 37.5839 93.4123 37.5359C93.2603 37.4879 93.1003 37.4639 92.9403 37.4639C92.7163 37.4639 92.5003 37.5119 92.3003 37.5999C92.1003 37.6959 91.9243 37.8239 91.7803 37.9919C91.6363 38.1599 91.5163 38.3599 91.4363 38.5839C91.3563 38.8079 91.3083 39.0639 91.3083 39.3439C91.3083 39.5679 91.3483 39.7839 91.4363 39.9759C91.5243 40.1759 91.6363 40.3439 91.7803 40.4959C91.9243 40.6479 92.1003 40.7599 92.3003 40.8479C92.5003 40.9359 92.7163 40.9759 92.9403 40.9759C93.1003 40.9759 93.2603 40.9519 93.4043 40.9119C93.5563 40.8639 93.6923 40.8079 93.8283 40.7199C93.9563 40.6399 94.0763 40.5359 94.1803 40.4159C94.2843 40.2959 94.3643 40.1679 94.4283 40.0159L95.6363 41.2319C95.4843 41.4479 95.3083 41.6479 95.1083 41.8159C94.9083 41.9919 94.6923 42.1359 94.4603 42.2559C94.2283 42.3759 93.9883 42.4719 93.7243 42.5279C93.4683 42.5919 93.2043 42.6239 92.9323 42.6239C92.4763 42.6239 92.0443 42.5359 91.6443 42.3679C91.2443 42.1999 90.8923 41.9599 90.5883 41.6639C90.2843 41.3679 90.0523 41.0159 89.8763 40.6159C89.7003 40.2159 89.6123 39.7919 89.6123 39.3359C89.6123 38.8399 89.7003 38.3759 89.8763 37.9439C90.0523 37.5119 90.2843 37.1359 90.5883 36.8159C90.8923 36.4959 91.2363 36.2399 91.6443 36.0559C92.0443 35.8719 92.4763 35.7759 92.9323 35.7759C93.2043 35.7759 93.4683 35.8079 93.7243 35.8799C93.9883 35.9519 94.2363 36.0479 94.4683 36.1759C94.7083 36.3039 94.9243 36.4639 95.1243 36.6559C95.3243 36.8639 95.5003 37.0799 95.6443 37.3279Z" fill="#56B043"/>
<path d="M102.612 39.2237C102.612 39.7037 102.524 40.1597 102.348 40.5757C102.172 40.9917 101.94 41.3517 101.644 41.6557C101.348 41.9597 100.996 42.1997 100.596 42.3757C100.196 42.5517 99.7643 42.6397 99.3083 42.6397C98.8523 42.6397 98.4203 42.5517 98.0203 42.3757C97.6203 42.1997 97.2683 41.9597 96.9643 41.6557C96.6603 41.3517 96.4283 40.9917 96.2523 40.5757C96.0763 40.1597 95.9883 39.7037 95.9883 39.2237C95.9883 38.7277 96.0763 38.2797 96.2523 37.8557C96.4283 37.4397 96.6603 37.0717 96.9643 36.7677C97.2683 36.4637 97.6123 36.2237 98.0203 36.0477C98.4203 35.8717 98.8523 35.7837 99.3083 35.7837C99.7643 35.7837 100.196 35.8637 100.596 36.0317C100.996 36.1917 101.348 36.4237 101.644 36.7277C101.94 37.0317 102.18 37.3917 102.348 37.8077C102.524 38.2397 102.612 38.7037 102.612 39.2237ZM100.948 39.2237C100.948 38.9597 100.908 38.7197 100.82 38.5037C100.732 38.2877 100.612 38.1037 100.468 37.9437C100.316 37.7917 100.148 37.6717 99.9483 37.5837C99.7483 37.5037 99.5323 37.4637 99.3083 37.4637C99.0843 37.4637 98.8683 37.5037 98.6683 37.5837C98.4683 37.6637 98.2923 37.7837 98.1483 37.9437C98.0043 38.0957 97.8843 38.2877 97.8043 38.5037C97.7163 38.7197 97.6763 38.9597 97.6763 39.2237C97.6763 39.4717 97.7163 39.7037 97.8043 39.9197C97.8923 40.1357 98.0043 40.3197 98.1483 40.4797C98.2923 40.6397 98.4683 40.7597 98.6683 40.8557C98.8683 40.9437 99.0843 40.9917 99.3083 40.9917C99.5323 40.9917 99.7483 40.9517 99.9483 40.8637C100.148 40.7757 100.324 40.6637 100.468 40.5037C100.62 40.3517 100.732 40.1677 100.82 39.9437C100.908 39.7277 100.948 39.4877 100.948 39.2237Z" fill="#56B043"/>
<path d="M111.764 42.5197H110.116V38.4077C110.116 38.2957 110.092 38.1917 110.052 38.0877C110.012 37.9837 109.948 37.8957 109.876 37.8237C109.796 37.7437 109.708 37.6877 109.612 37.6477C109.508 37.6077 109.404 37.5837 109.292 37.5837C109.18 37.5837 109.076 37.6077 108.972 37.6477C108.876 37.6877 108.788 37.7517 108.708 37.8237C108.636 37.9037 108.572 37.9917 108.532 38.0877C108.492 38.1917 108.468 38.2957 108.468 38.4077V42.5197H106.82V38.4077C106.82 38.2957 106.796 38.1917 106.756 38.0877C106.716 37.9837 106.652 37.8957 106.58 37.8237C106.5 37.7437 106.412 37.6877 106.316 37.6477C106.212 37.6077 106.108 37.5837 105.996 37.5837C105.884 37.5837 105.78 37.6077 105.676 37.6477C105.572 37.6877 105.492 37.7517 105.412 37.8237C105.34 37.9037 105.276 37.9917 105.236 38.0877C105.196 38.1917 105.172 38.2957 105.172 38.4077V42.5197H103.524V36.0397H103.924L104.372 36.5357C104.604 36.3437 104.852 36.1917 105.132 36.0877C105.412 35.9837 105.692 35.9277 105.996 35.9277C106.3 35.9277 106.596 35.9837 106.884 36.0957C107.172 36.2077 107.428 36.4077 107.644 36.6797C107.748 36.5437 107.86 36.4237 107.988 36.3277C108.116 36.2317 108.252 36.1517 108.396 36.0957C108.54 36.0317 108.684 35.9917 108.844 35.9677C108.996 35.9437 109.148 35.9277 109.3 35.9277C109.644 35.9277 109.964 35.9917 110.268 36.1197C110.572 36.2477 110.828 36.4237 111.052 36.6477C111.276 36.8717 111.452 37.1357 111.58 37.4397C111.708 37.7437 111.772 38.0637 111.772 38.4077L111.764 42.5197Z" fill="#56B043"/>
<path d="M115.005 41.9041C115.005 42.0481 114.981 42.1841 114.925 42.3121C114.869 42.4401 114.797 42.5521 114.709 42.6401C114.613 42.7361 114.509 42.8081 114.381 42.8641C114.253 42.9201 114.117 42.9441 113.973 42.9441C113.829 42.9441 113.701 42.9201 113.573 42.8641C113.445 42.8081 113.333 42.7361 113.237 42.6401C113.141 42.5441 113.069 42.4401 113.013 42.3121C112.957 42.1841 112.933 42.0481 112.933 41.9041C112.933 41.7601 112.957 41.6321 113.013 41.5041C113.069 41.3761 113.141 41.2721 113.237 41.1761C113.333 41.0801 113.445 41.0081 113.573 40.9521C113.701 40.8961 113.837 40.8721 113.973 40.8721C114.117 40.8721 114.253 40.8961 114.381 40.9521C114.509 41.0081 114.613 41.0801 114.709 41.1761C114.805 41.2721 114.877 41.3761 114.925 41.5041C114.973 41.6321 115.005 41.7601 115.005 41.9041Z" fill="#56B043"/>
<path d="M122.621 39.2239C122.621 39.7359 122.533 40.1999 122.357 40.6159C122.181 41.0319 121.949 41.3919 121.653 41.6959C121.357 41.9999 121.005 42.2319 120.605 42.3919C120.205 42.5599 119.773 42.6399 119.317 42.6399C118.861 42.6399 118.429 42.5519 118.029 42.3839C117.629 42.2159 117.277 41.9759 116.973 41.6799C116.669 41.3839 116.437 41.0159 116.261 40.5999C116.085 40.1839 115.997 39.7199 115.997 39.2239V33.4639H117.653V36.4879C117.741 36.3759 117.853 36.2719 117.973 36.1839C118.101 36.0959 118.237 36.0239 118.381 35.9679C118.525 35.9119 118.677 35.8719 118.837 35.8399C118.997 35.8079 119.149 35.7919 119.293 35.7919C119.749 35.7919 120.181 35.8799 120.581 36.0479C120.981 36.2159 121.333 36.4559 121.629 36.7679C121.925 37.0719 122.165 37.4399 122.333 37.8559C122.533 38.2719 122.621 38.7279 122.621 39.2239ZM120.957 39.2239C120.957 38.9759 120.917 38.7439 120.829 38.5279C120.741 38.3119 120.621 38.1279 120.477 37.9679C120.325 37.8079 120.157 37.6879 119.957 37.5999C119.757 37.5119 119.541 37.4639 119.317 37.4639C119.093 37.4639 118.877 37.5119 118.677 37.6159C118.477 37.7119 118.301 37.8479 118.157 38.0079C118.005 38.1679 117.893 38.3599 117.805 38.5679C117.717 38.7759 117.677 38.9999 117.677 39.2239C117.677 39.4719 117.717 39.7039 117.805 39.9199C117.893 40.1359 118.005 40.3199 118.157 40.4799C118.309 40.6399 118.477 40.7599 118.677 40.8559C118.877 40.9439 119.093 40.9919 119.317 40.9919C119.541 40.9919 119.757 40.9439 119.957 40.8559C120.157 40.7679 120.333 40.6399 120.477 40.4799C120.629 40.3199 120.741 40.1359 120.829 39.9199C120.909 39.7039 120.957 39.4719 120.957 39.2239Z" fill="#56B043"/>
<path d="M125.181 42.52H123.533V36.04H123.933L124.477 36.808C124.741 36.568 125.045 36.376 125.381 36.248C125.717 36.12 126.069 36.048 126.437 36.048H127.893V37.696H126.437C126.261 37.696 126.101 37.728 125.949 37.792C125.797 37.856 125.661 37.944 125.549 38.056C125.437 38.168 125.349 38.304 125.285 38.456C125.221 38.608 125.189 38.776 125.189 38.944V42.52H125.181Z" fill="#56B043"/>
<path d="M5.88477 11.1761C5.88477 10.2561 6.06077 9.39209 6.41277 8.58409C6.76477 7.77609 7.24477 7.07209 7.85277 6.46409C8.46077 5.85609 9.16477 5.37609 9.97277 5.02409C10.7808 4.67209 11.6448 4.49609 12.5648 4.49609H20.5568C21.7888 4.49609 22.7888 5.49609 22.7888 6.72809C22.7888 7.96009 21.7888 8.96009 20.5568 8.96009H12.5648C12.2528 8.96009 11.9648 9.01609 11.6928 9.12809C11.4208 9.24009 11.1888 9.40009 10.9888 9.60009C10.7888 9.80009 10.6288 10.0401 10.5168 10.3041C10.4048 10.5761 10.3488 10.8641 10.3488 11.1761C10.3488 11.4881 10.4048 11.7761 10.5168 12.0561C10.6288 12.3281 10.7888 12.5681 10.9888 12.7681C11.1888 12.9681 11.4288 13.1281 11.6928 13.2401C11.9648 13.3521 12.2528 13.4081 12.5648 13.4081H17.0288C17.9488 13.4081 18.8208 13.5841 19.6288 13.9281C20.4448 14.2721 21.1488 14.7521 21.7568 15.3601C22.3648 15.9681 22.8368 16.6721 23.1888 17.4881C23.5328 18.3041 23.7088 19.1681 23.7088 20.0881C23.7088 21.0081 23.5328 21.8721 23.1888 22.6801C22.8448 23.4881 22.3648 24.1921 21.7568 24.8001C21.1488 25.4081 20.4448 25.8881 19.6288 26.2401C18.8128 26.5921 17.9488 26.7681 17.0288 26.7681H9.35677C8.12477 26.7681 7.12477 25.7681 7.12477 24.5361C7.12477 23.3041 8.12477 22.3041 9.35677 22.3041H17.0288C17.3408 22.3041 17.6288 22.2481 17.9008 22.1361C18.1728 22.0241 18.4048 21.8641 18.6048 21.6641C18.8048 21.4641 18.9648 21.2241 19.0768 20.9601C19.1888 20.6881 19.2448 20.4001 19.2448 20.0881C19.2448 19.7761 19.1888 19.4881 19.0768 19.2161C18.9648 18.9441 18.8048 18.7121 18.6048 18.5121C18.4048 18.3121 18.1648 18.1521 17.9008 18.0401C17.6288 17.9281 17.3408 17.8721 17.0288 17.8721H12.5648C11.6448 17.8721 10.7808 17.6961 9.97277 17.3441C9.16477 16.9921 8.46077 16.5121 7.85277 15.9041C7.24477 15.2961 6.76477 14.5921 6.41277 13.7761C6.06077 12.9601 5.88477 12.0961 5.88477 11.1761Z" fill="black"/>
<path d="M34.2452 26.7762C33.2212 26.7762 32.2532 26.5842 31.3572 26.1922C30.4532 25.8002 29.6692 25.2722 28.9892 24.5922C28.3092 23.9122 27.7732 23.1202 27.3892 22.2242C26.9972 21.3202 26.8052 20.3602 26.8052 19.3362V15.4242C26.8052 14.8562 26.3412 14.3922 25.7732 14.3922C25.2052 14.3922 24.7412 13.9282 24.7412 13.3602V11.2002C24.7412 10.6322 25.2052 10.1682 25.7732 10.1682C26.3412 10.1682 26.8052 9.70421 26.8052 9.13621V4.54421C26.8052 3.97621 27.2692 3.51221 27.8372 3.51221H29.9972C30.5652 3.51221 31.0292 3.97621 31.0292 4.54421V9.12821C31.0292 9.69621 31.4932 10.1602 32.0612 10.1602H36.4292C36.9972 10.1602 37.4612 10.6242 37.4612 11.1922V13.3522C37.4612 13.9202 36.9972 14.3842 36.4292 14.3842H32.0612C31.4932 14.3842 31.0292 14.8482 31.0292 15.4162V19.3282C31.0292 19.7762 31.1092 20.1922 31.2772 20.5762C31.4452 20.9682 31.6692 21.3042 31.9572 21.5922C32.2452 21.8802 32.5892 22.1122 32.9812 22.2802C33.3732 22.4482 33.7972 22.5362 34.2372 22.5362H35.3412C36.5092 22.5362 37.4532 23.4802 37.4532 24.6482C37.4532 25.8162 36.5092 26.7602 35.3412 26.7602H34.2452V26.7762Z" fill="black"/>
<path d="M55.2772 26.7761C55.0612 26.7761 54.8532 26.6721 54.7252 26.4961L53.7092 25.0881C53.4852 24.7761 53.0372 24.7121 52.7412 24.9521C52.5012 25.1441 52.2532 25.3281 51.9972 25.5121C51.5492 25.8321 51.0692 26.1041 50.5732 26.3361C50.4372 26.4001 50.2932 26.4641 50.1572 26.5201C48.8612 27.0481 47.4372 27.1921 46.0532 26.9921C45.3972 26.8961 44.7572 26.7361 44.1492 26.5041C43.1172 26.1121 42.2132 25.5361 41.4452 24.7841C40.6772 24.0321 40.0612 23.1121 39.6212 22.0241C39.1732 20.9361 38.9492 19.6961 38.9492 18.3121C38.9492 17.0161 39.1732 15.8241 39.6212 14.7441C40.0692 13.6641 40.6772 12.7281 41.4452 11.9521C42.2132 11.1761 43.1172 10.5681 44.1492 10.1441C45.1812 9.71209 46.2772 9.49609 47.4532 9.49609C47.9892 9.49609 48.5252 9.56009 49.0532 9.69609C49.5812 9.83209 50.0932 10.0161 50.5892 10.2561C51.0852 10.4961 51.5572 10.7761 52.0132 11.0961C52.2772 11.2801 52.5252 11.4801 52.7652 11.6801C53.0532 11.9201 53.4852 11.8881 53.7252 11.6001L54.7172 10.4081C54.8452 10.2561 55.0372 10.1681 55.2372 10.1681H55.2692C55.6452 10.1681 55.9492 10.4721 55.9492 10.8481V26.1041C55.9572 26.4721 55.6532 26.7761 55.2772 26.7761ZM51.6852 18.3041C51.6852 17.7201 51.5732 17.1601 51.3492 16.6161C51.1252 16.0721 50.8212 15.5921 50.4372 15.1681C50.0532 14.7521 49.6052 14.4161 49.0932 14.1601C48.5812 13.9041 48.0372 13.7761 47.4532 13.7761C46.8692 13.7761 46.3252 13.8721 45.8132 14.0721C45.3012 14.2721 44.8532 14.5601 44.4772 14.9441C44.1012 15.3281 43.7972 15.8001 43.5812 16.3681C43.3652 16.9361 43.2532 17.5761 43.2532 18.3041C43.2532 19.0321 43.3652 19.6721 43.5812 20.2401C43.7972 20.8081 44.0932 21.2801 44.4772 21.6641C44.8532 22.0481 45.3012 22.3361 45.8132 22.5361C46.3252 22.7361 46.8692 22.8321 47.4532 22.8321C48.0372 22.8321 48.5812 22.7041 49.0932 22.4481C49.6052 22.1921 50.0532 21.8561 50.4372 21.4401C50.8212 21.0241 51.1252 20.5361 51.3492 19.9921C51.5732 19.4481 51.6852 18.8881 51.6852 18.3041Z" fill="black"/>
<path d="M61.3085 26.7762C60.1405 26.7762 59.1885 25.8242 59.1885 24.6562V10.3362C59.1885 10.2242 59.2765 10.1362 59.3885 10.1362H60.1085C60.1725 10.1362 60.2365 10.1682 60.2685 10.2242L61.4765 11.9362C61.5485 12.0322 61.6765 12.0482 61.7725 11.9682C62.4205 11.4162 63.1405 10.9842 63.9485 10.6722C64.8685 10.3202 65.8605 10.1682 66.8525 10.1682H68.2765C69.4445 10.1682 70.3885 11.1122 70.3885 12.2802C70.3885 13.4482 69.4445 14.3922 68.2765 14.3922H66.6445C66.1965 14.3922 65.7805 14.4722 65.3885 14.6402C64.9965 14.8082 64.6525 15.0322 64.3645 15.3202C64.0765 15.6082 63.8445 15.9522 63.6845 16.3442C63.5165 16.7362 63.4365 17.1602 63.4365 17.6002V24.6482C63.4285 25.8242 62.4845 26.7762 61.3085 26.7762Z" fill="black"/>
<path d="M80.7169 26.7762C79.6929 26.7762 78.7249 26.5842 77.8289 26.1922C76.9249 25.8002 76.1409 25.2722 75.4609 24.5922C74.7809 23.9122 74.2449 23.1202 73.8609 22.2242C73.4689 21.3202 73.2769 20.3602 73.2769 19.3362V15.4242C73.2769 14.8562 72.8129 14.3922 72.2449 14.3922C71.6769 14.3922 71.2129 13.9282 71.2129 13.3602V11.2002C71.2129 10.6322 71.6769 10.1682 72.2449 10.1682C72.8129 10.1682 73.2769 9.70421 73.2769 9.13621V4.54421C73.2769 3.97621 73.7409 3.51221 74.3089 3.51221H76.4689C77.0369 3.51221 77.5009 3.97621 77.5009 4.54421V9.12821C77.5009 9.69621 77.9649 10.1602 78.5329 10.1602H82.9009C83.4689 10.1602 83.9329 10.6242 83.9329 11.1922V13.3522C83.9329 13.9202 83.4689 14.3842 82.9009 14.3842H78.5329C77.9649 14.3842 77.5009 14.8482 77.5009 15.4162V19.3282C77.5009 19.7762 77.5809 20.1922 77.7489 20.5762C77.9169 20.9682 78.1409 21.3042 78.4289 21.5922C78.7169 21.8802 79.0609 22.1122 79.4529 22.2802C79.8449 22.4482 80.2689 22.5362 80.7089 22.5362H81.8129C82.9809 22.5362 83.9249 23.4802 83.9249 24.6482C83.9249 25.8162 82.9809 26.7602 81.8129 26.7602H80.7169V26.7762Z" fill="black"/>
<path d="M98.9651 25.432C98.7411 25.12 98.2932 25.056 97.9892 25.304C97.8132 25.448 97.6291 25.584 97.4371 25.72C97.0451 25.992 96.6452 26.232 96.2132 26.432C96.0932 26.488 95.9812 26.536 95.8612 26.592C94.7332 27.056 93.4931 27.192 92.2851 27C91.7091 26.912 91.1652 26.76 90.6292 26.552C89.7252 26.192 88.9412 25.672 88.2612 25.008C87.5812 24.336 87.0452 23.528 86.6612 22.568C86.2692 21.608 86.0771 20.536 86.0771 19.344V12.256C86.0771 11.088 87.0212 10.144 88.1892 10.144C89.3572 10.144 90.3012 11.088 90.3012 12.256V19.344C90.3012 19.904 90.3891 20.4 90.5571 20.848C90.7251 21.288 90.9571 21.656 91.2451 21.96C91.5331 22.264 91.8772 22.488 92.2612 22.648C92.5972 22.784 92.9572 22.856 93.3332 22.88C93.8692 22.904 94.4052 22.784 94.8692 22.512C95.2052 22.32 95.5011 22.072 95.7651 21.776C96.0531 21.448 96.2851 21.072 96.4451 20.648C96.6131 20.232 96.6932 19.8 96.6932 19.352V12.272C96.6932 11.104 97.6452 10.152 98.8132 10.152C99.9812 10.152 100.933 11.104 100.933 12.272V26.12C100.933 26.496 100.629 26.8 100.253 26.8C100.037 26.8 99.8292 26.696 99.7012 26.52L98.9651 25.432Z" fill="black"/>
<path d="M106.332 33.1203C105.148 33.1203 104.196 32.1603 104.196 30.9843V10.8323C104.196 10.4483 104.508 10.1283 104.9 10.1283C105.108 10.1283 105.3 10.2163 105.436 10.3763L106.924 12.1363C107.308 11.7763 107.724 11.4323 108.18 11.1123C108.636 10.7923 109.108 10.5123 109.604 10.2803C110.092 10.0483 110.604 9.86432 111.132 9.72832C111.66 9.59232 112.196 9.52832 112.732 9.52832C113.9 9.52832 115.004 9.73632 116.036 10.1603C117.068 10.5763 117.972 11.1763 118.74 11.9363C119.508 12.7043 120.124 13.6243 120.564 14.7123C121.012 15.7923 121.236 16.9923 121.236 18.3123C121.236 19.6803 121.012 20.9123 120.564 22.0003C120.116 23.0963 119.508 24.0243 118.74 24.7843C117.972 25.5443 117.068 26.1283 116.036 26.5363C115.004 26.9443 113.908 27.1443 112.732 27.1443C112.356 27.1443 111.988 27.1043 111.62 27.0163C111.252 26.9363 110.892 26.8243 110.532 26.6803C110.172 26.5443 109.82 26.3843 109.476 26.2083C109.132 26.0323 108.796 25.8483 108.476 25.6643V30.9843C108.468 32.1603 107.508 33.1203 106.332 33.1203ZM116.972 18.3043C116.972 17.6003 116.86 16.9683 116.636 16.4083C116.412 15.8483 116.108 15.3763 115.724 14.9843C115.34 14.5923 114.892 14.2963 114.372 14.0883C113.852 13.8803 113.308 13.7763 112.724 13.7763C112.14 13.7763 111.596 13.8803 111.084 14.0883C110.572 14.2963 110.124 14.5923 109.74 14.9843C109.356 15.3763 109.052 15.8483 108.828 16.4083C108.604 16.9683 108.492 17.6003 108.492 18.3043C108.492 18.9763 108.604 19.5923 108.828 20.1523C109.052 20.7123 109.356 21.1843 109.74 21.5843C110.124 21.9763 110.572 22.2803 111.084 22.5043C111.596 22.7203 112.14 22.8323 112.724 22.8323C113.308 22.8323 113.852 22.7203 114.372 22.5043C114.892 22.2883 115.34 21.9843 115.724 21.5843C116.108 21.1923 116.412 20.7123 116.636 20.1523C116.86 19.6003 116.972 18.9843 116.972 18.3043Z" fill="black"/>
<path d="M125.709 26.7762C124.525 26.7762 123.573 25.8162 123.573 24.6402V12.2722C123.573 11.0882 124.533 10.1362 125.709 10.1362C126.893 10.1362 127.845 11.0962 127.845 12.2722V24.6402C127.845 25.8162 126.893 26.7762 125.709 26.7762Z" fill="black"/>
<path d="M125.781 2.24805H120.917C119.061 2.24805 117.549 3.75205 117.549 5.61605C117.549 7.49605 119.069 9.01605 120.949 9.01605H125.749C127.621 9.01605 129.149 7.48805 129.149 5.61605C129.149 3.75205 127.645 2.24805 125.781 2.24805ZM128.349 6.71205C128.197 7.05605 127.997 7.35205 127.733 7.60805C127.477 7.86405 127.173 8.06405 126.821 8.21605C126.477 8.36805 126.101 8.44005 125.709 8.44005C125.317 8.44005 124.941 8.36805 124.597 8.21605C124.253 8.06405 123.949 7.86405 123.693 7.60805C123.437 7.35205 123.237 7.05605 123.085 6.71205C122.933 6.36805 122.861 6.00005 122.861 5.60805C122.861 5.22405 122.933 4.85605 123.085 4.51205C123.237 4.16805 123.437 3.86405 123.693 3.60805C123.949 3.35205 124.245 3.15205 124.597 3.00005C124.941 2.84805 125.317 2.77605 125.709 2.77605C126.101 2.77605 126.469 2.84805 126.821 3.00005C127.165 3.15205 127.469 3.35205 127.733 3.60805C127.989 3.86405 128.197 4.16005 128.349 4.51205C128.501 4.85605 128.573 5.22405 128.573 5.60805C128.581 6.00805 128.501 6.36805 128.349 6.71205Z" fill="#56B043"/>
</svg>
