<svg width="120" height="48" viewBox="0 0 120 48" fill="none" xmlns="http://www.w3.org/2000/svg">
<path d="M25.2396 42.1769C35.2785 42.1769 43.4166 34.0387 43.4166 23.9998C43.4166 13.9609 35.2785 5.82275 25.2396 5.82275C15.2007 5.82275 7.0625 13.9609 7.0625 23.9998C7.0625 34.0387 15.2007 42.1769 25.2396 42.1769Z" fill="#FF8000"/>
<path d="M25.2403 6.80762C21.216 6.82764 17.3633 8.44035 14.5248 11.2931C11.6862 14.1459 10.0927 18.0065 10.0928 22.0309C10.0928 22.864 10.1685 23.6214 10.2442 24.4545C12.2134 19.3044 17.5908 15.5932 23.9528 15.5932C26.3836 15.555 28.7855 16.1237 30.9411 17.2478C33.0967 18.3719 34.9379 20.0159 36.298 22.0309H36.3738C37.8293 22.0069 39.2481 22.4887 40.3879 23.3942C40.4507 22.9426 40.4761 22.4867 40.4636 22.0309C40.4636 20.0318 40.0699 18.0522 39.3048 16.2052C38.5398 14.3582 37.4184 12.68 36.0048 11.2664C34.5912 9.8528 32.913 8.73146 31.066 7.96642C29.2191 7.20138 27.2395 6.80762 25.2403 6.80762Z" fill="#FFCE00"/>
<path d="M40.3873 23.3939C39.2475 22.4884 37.8288 22.0066 36.3732 22.0306H36.2975C31.829 22.0306 27.1332 25.8933 25.77 30.7405C25.4173 31.8113 25.3159 32.949 25.4735 34.0654C25.6311 35.1817 26.0435 36.2468 26.6788 37.1782H25.2398C21.6433 37.1583 18.1688 35.8719 15.4264 33.5451C12.684 31.2182 10.849 27.9995 10.2437 24.4543C9.76006 25.843 9.5043 27.3009 9.48633 28.7713C9.49789 30.5719 9.89608 32.3489 10.654 33.9823C11.4118 35.6156 12.5117 37.0671 13.8791 38.2385C15.6189 39.5569 17.5635 40.5804 19.6352 41.268C21.4394 41.8823 23.3339 42.1895 25.2398 42.1769C27.8238 42.1747 30.3773 41.6194 32.7288 40.5481C35.0803 39.4769 37.1752 37.9147 38.8726 35.9664C40.0541 34.6604 41.0251 33.1784 41.7506 31.5736C41.8264 31.2707 41.9778 31.0434 42.0536 30.7405C42.8867 27.6352 42.205 24.9844 40.3873 23.3939Z" fill="#FF0024"/>
<path d="M107.87 28.9228C105.068 28.9228 103.78 27.408 103.78 24.6057V7.18604H95.0704V20.1372C94.0822 17.9959 92.5014 16.1825 90.5149 14.9114C88.5285 13.6404 86.2195 12.9649 83.8612 12.9649C81.5029 12.9649 79.1939 13.6404 77.2075 14.9114C75.221 16.1825 73.6402 17.9959 72.652 20.1372V13.2451H64.0936V25.3631C64.0936 27.5595 62.8818 29.0743 60.9884 29.0743C59.0949 29.0743 57.8831 27.5595 57.8831 25.3631V13.2451H49.249V25.5146C49.249 33.0126 53.869 37.7084 60.9884 37.7084C66.7444 37.7084 70.8343 34.5274 72.1218 29.3772C72.9581 31.8012 74.524 33.907 76.6048 35.4056C78.6855 36.9041 81.1791 37.722 83.7432 37.7469C86.3073 37.7718 88.8162 37.0025 90.9257 35.5446C93.0351 34.0867 94.6417 32.0117 95.5248 29.6044C96.8123 35.1333 100.978 37.5569 106.583 37.5569H108.779V28.9228H107.87ZM83.8612 29.0743C83.1272 29.0743 82.4097 28.8566 81.7994 28.4488C81.1891 28.041 80.7134 27.4614 80.4325 26.7833C80.1516 26.1052 80.0781 25.359 80.2213 24.6391C80.3645 23.9192 80.718 23.2579 81.237 22.7389C81.756 22.2199 82.4173 21.8665 83.1372 21.7233C83.8571 21.5801 84.6033 21.6536 85.2814 21.9345C85.9595 22.2153 86.5391 22.691 86.9469 23.3013C87.3547 23.9116 87.5723 24.6291 87.5723 25.3631C87.5723 25.8505 87.4763 26.333 87.2898 26.7833C87.1033 27.2336 86.83 27.6427 86.4854 27.9873C86.1408 28.3319 85.7316 28.6053 85.2814 28.7918C84.8311 28.9783 84.3485 29.0743 83.8612 29.0743Z" fill="black"/>
</svg>
